<svg width="50" height="51" fill="none" xmlns="http://www.w3.org/2000/svg"><path d="M38.072 33.58v-1.563 1.563zm6.54-8.364l-1.527.327 1.528-.328zm.024.107l1.528-.328-1.528.328zm0 2.94l-1.528-.328 1.528.328zm-6.454-8.257v-1.563 1.563zm-2.14 13.574l-1.513-.393-.508 1.955h2.02V33.58zm1.289-13.574v-1.563h-1.667l.108 1.664 1.559-.101zm.741 12.011h-1.018v3.125h1.018v-3.125zm5.013-6.474l.023.107 3.056-.655-.023-.107-3.056.655zm.023.107a5.455 5.455 0 010 2.285l3.056.655a8.577 8.577 0 000-3.595l-3.056.655zm-5.035 9.492a8.28 8.28 0 008.09-6.552l-3.055-.655a5.155 5.155 0 01-5.035 4.082v3.125zm.109-13.574a5.02 5.02 0 014.903 3.975l3.056-.655a8.144 8.144 0 00-7.959-6.445v3.125zm-1.128 10.45H36.04v3.124h1.013v-3.125zm-1.282-11.911a41.41 41.41 0 01-1.243 13.08l3.025.785a44.537 44.537 0 001.336-14.067l-3.118.202zm2.41-1.664h-.851v3.125h.851v-3.125z" fill="#ED9902"/><path d="M15.153 7.365l-.236-1.544.236 1.544zm12.213 0l.236-1.544-.236 1.544zm-.629 36.554l.273 1.538-.273-1.538zm-10.955 0l.273-1.538-.273 1.538zm-8.388-7.224l1.493-.46-1.493.46zM5.54 16.498l-1.552-.181 1.552.18zm31.59 1.292l-1.552.181 1.552-.181zm-1.62 17.66l-1.493-.46 1.493.46zM5.616 15.853l1.552.181-1.552-.18zm7.942-8.243l.236 1.544-.236-1.544zm1.945 36.26l-.273 1.539.273-1.539zm19.707-7.446l1.493.461-1.493-.46zm1.746-20.118l1.552-.182-1.552.182zM28.512 7.54l-.236 1.545.236-1.545zm7.53 26.04l-1.513-.393 1.512.393zm1.289-13.574l-1.56.1 1.56-.1zm-1.927-3.52l.174 1.486 3.104-.363-.174-1.486-3.104.363zm-1.387 18.505l-.3.972 2.986.921.3-.972-2.986-.921zM7.093 16.679l.075-.646-3.104-.362-.075.646 3.104.362zm8.962 25.701l-.279-.05-.546 3.078.28.05.545-3.078zm-2.26-33.227l1.594-.243-.472-3.09-1.595.244.472 3.09zM27.13 8.91l1.146.175.472-3.09-1.146-.174-.472 3.089zm-11.741 0a38.869 38.869 0 0111.741 0l.472-3.09a41.994 41.994 0 00-12.685 0l.472 3.09zm11.075 33.47a29.772 29.772 0 01-10.409 0l-.546 3.077a32.9 32.9 0 0011.501 0l-.546-3.077zM8.887 36.234A47.583 47.583 0 017.093 16.68l-3.104-.362A50.707 50.707 0 005.9 37.156l2.986-.922zm-1.719-20.2a7.877 7.877 0 016.626-6.88l-.472-3.09a11.002 11.002 0 00-9.258 9.607l3.104.362zM5.901 37.155a11.956 11.956 0 009.329 8.252l.546-3.077a8.83 8.83 0 01-6.89-6.097l-2.985.922zm27.816-1.193a9.296 9.296 0 01-7.253 6.417l.546 3.077a12.421 12.421 0 009.693-8.573l-2.986-.921zm4.791-19.84a11.6 11.6 0 00-9.76-10.127l-.472 3.089a8.474 8.474 0 017.128 7.401l3.104-.363zm-3.98 17.064a41.474 41.474 0 01-.511 1.804l2.986.921c.198-.643.382-1.29.55-1.94l-3.024-.785zm1.05-15.215c.083.71.147 1.423.194 2.135l3.118-.202a44.622 44.622 0 00-.208-2.296l-3.104.363zm.194 2.135a41.412 41.412 0 01-1.243 13.08l3.025.785a44.537 44.537 0 001.336-14.067l-3.118.202z" fill="#fff"/><path d="M12.5 24.61v1.59c0 3.064.713 6.085 2.083 8.825" stroke="#ED9902" stroke-width="3.125" stroke-linecap="round"/></svg>