<svg width="50" height="51" fill="none" xmlns="http://www.w3.org/2000/svg"><path d="M4.167 36.111v-8.29l.05-.757c.654-9.749 7.6-17.846 16.962-19.773 2.522-.52 5.12-.52 7.642 0 9.362 1.927 16.308 10.024 16.962 19.773l.05.757v8.29m-13.355 1.626a15.062 15.062 0 010-5.62c.567-2.983 2.726-5.386 5.584-6.214l.606-.175a6.963 6.963 0 011.937-.275c2.888 0 5.228 2.395 5.228 5.35v8.248c0 2.955-2.34 5.35-5.228 5.35a6.96 6.96 0 01-1.937-.275l-.606-.175c-2.858-.828-5.017-3.23-5.584-6.214zm-14.956 0a15.062 15.062 0 000-5.62c-.567-2.983-2.726-5.386-5.584-6.214l-.606-.175a6.963 6.963 0 00-1.937-.275c-2.887 0-5.228 2.395-5.228 5.35v8.248c0 2.955 2.34 5.35 5.228 5.35a6.96 6.96 0 001.937-.275l.606-.175c2.858-.828 5.017-3.23 5.584-6.214z" stroke="#fff" stroke-width="3.125"/><path d="M45.833 39.051c0 2.955-2.34 5.35-5.228 5.35a6.96 6.96 0 01-1.937-.275l-.606-.175c-2.858-.828-5.017-3.23-5.584-6.214a15.062 15.062 0 010-5.62c.567-2.983 2.726-5.386 5.584-6.214l.606-.175a6.96 6.96 0 011.937-.275c2.888 0 5.228 2.395 5.228 5.35v8.248zm-41.666 0c0 2.955 2.34 5.35 5.228 5.35a6.96 6.96 0 001.937-.275l.606-.175c2.858-.828 5.017-3.23 5.584-6.214a15.062 15.062 0 000-5.62c-.567-2.983-2.726-5.386-5.584-6.214l-.606-.175a6.96 6.96 0 00-1.937-.275c-2.887 0-5.228 2.395-5.228 5.35v8.248z" stroke="#ED9902" stroke-width="3.125"/></svg>