<svg width="50" height="51" fill="none" xmlns="http://www.w3.org/2000/svg"><path d="M6.869 11.555a5.415 5.415 0 014.035-4.035v0a11.551 11.551 0 015.276 0v0a5.415 5.415 0 014.035 4.035v0c.407 1.735.407 3.54 0 5.276v0a5.415 5.415 0 01-4.035 4.035v0a11.552 11.552 0 01-5.276 0v0a5.414 5.414 0 01-4.035-4.035v0a11.551 11.551 0 010-5.276v0z" stroke="#fff" stroke-width="3.125"/><path d="M6.869 34.472a5.415 5.415 0 014.035-4.035v0a11.551 11.551 0 015.276 0v0a5.415 5.415 0 014.035 4.035v0a11.55 11.55 0 010 5.276v0a5.415 5.415 0 01-4.035 4.035v0a11.552 11.552 0 01-5.276 0v0a5.415 5.415 0 01-4.035-4.035v0a11.551 11.551 0 010-5.276v0z" stroke="#ED9902" stroke-width="3.125"/><path d="M29.785 11.555A5.415 5.415 0 0133.82 7.52v0a11.551 11.551 0 015.276 0v0a5.414 5.414 0 014.035 4.035v0c.407 1.735.407 3.54 0 5.276v0a5.414 5.414 0 01-4.035 4.035v0c-1.735.407-3.54.407-5.276 0v0a5.415 5.415 0 01-4.035-4.035v0a11.554 11.554 0 010-5.276v0zm0 22.917a5.415 5.415 0 014.035-4.035v0a11.551 11.551 0 015.276 0v0a5.415 5.415 0 014.035 4.035v0a11.55 11.55 0 010 5.276v0a5.414 5.414 0 01-4.035 4.035v0c-1.735.407-3.54.407-5.276 0v0a5.415 5.415 0 01-4.035-4.035v0a11.553 11.553 0 010-5.276v0z" stroke="#fff" stroke-width="3.125"/></svg>