<svg width="50" height="51" fill="none" xmlns="http://www.w3.org/2000/svg"><path d="M28.65 10.43a3.518 3.518 0 00-2.991-3.479 4.398 4.398 0 00-1.317 0 3.518 3.518 0 00-2.991 3.478v2.46c-.983.28-1.919.671-2.794 1.158l-1.74-1.74a3.518 3.518 0 00-4.575-.344 4.385 4.385 0 00-.93.93 3.518 3.518 0 00.344 4.575l1.74 1.74a13.19 13.19 0 00-1.159 2.794h-2.46a3.518 3.518 0 00-3.477 2.99 4.346 4.346 0 000 1.318 3.518 3.518 0 003.478 2.99h2.46c.28.983.67 1.92 1.158 2.795l-1.74 1.74a3.518 3.518 0 00-.345 4.574c.262.355.576.67.931.931a3.518 3.518 0 004.575-.344l1.74-1.74c.875.487 1.811.877 2.794 1.158v2.46a3.518 3.518 0 002.99 3.478c.437.066.881.066 1.317 0a3.518 3.518 0 002.991-3.478v-2.46c.983-.28 1.919-.671 2.794-1.158l1.74 1.74a3.518 3.518 0 004.575.344 4.39 4.39 0 00.93-.931 3.518 3.518 0 00-.344-4.574l-1.74-1.74c.487-.876.878-1.812 1.159-2.794h2.46A3.518 3.518 0 0043.7 26.31c.066-.437.066-.88 0-1.317a3.518 3.518 0 00-3.478-2.991h-2.46a13.188 13.188 0 00-1.158-2.794l1.74-1.74a3.518 3.518 0 00.345-4.574 4.397 4.397 0 00-.931-.931 3.518 3.518 0 00-4.575.344l-1.74 1.74a13.193 13.193 0 00-2.794-1.158v-2.46z" stroke="#ED9902" stroke-width="3.125" stroke-linecap="round" stroke-linejoin="round"/><path d="M37.758 39.34a3.518 3.518 0 01-4.575-.344l-1.74-1.74c-.875.487-1.811.877-2.794 1.158v2.46a3.518 3.518 0 01-2.99 3.478 4.405 4.405 0 01-1.317 0 3.518 3.518 0 01-2.991-3.478v-2.46a13.193 13.193 0 01-2.794-1.158l-1.74 1.74a3.518 3.518 0 01-4.575.344 4.395 4.395 0 01-.93-.931 3.518 3.518 0 01.344-4.574l1.74-1.74a13.192 13.192 0 01-1.159-2.794h-2.46A3.518 3.518 0 016.3 26.31a4.397 4.397 0 010-1.317 3.518 3.518 0 013.478-2.991h2.46a13.19 13.19 0 011.158-2.794l-1.74-1.74a3.518 3.518 0 01-.345-4.574c.262-.356.576-.67.931-.931a3.518 3.518 0 014.575.344l1.74 1.74a13.193 13.193 0 012.794-1.158v-2.46a3.518 3.518 0 012.99-3.478 4.405 4.405 0 011.317 0 3.518 3.518 0 012.991 3.478v2.46c.983.28 1.919.671 2.794 1.158l1.74-1.74a3.518 3.518 0 014.575-.344" stroke="#fff" stroke-width="3.125" stroke-linecap="round" stroke-linejoin="round"/><path d="M19.792 25.651a5.208 5.208 0 1110.416 0 5.208 5.208 0 01-10.416 0z" stroke="#ED9902" stroke-width="3.125"/></svg>