<svg width="50" height="51" fill="none" xmlns="http://www.w3.org/2000/svg"><path d="M33.074 41.25l.376-.26c1.177-.814 1.766-1.221 2.292-1.657a15.616 15.616 0 005.422-9.326c.118-.672.179-1.383.301-2.804l.063-.735a37.482 37.482 0 00-.06-7.066l-.075-.727a11.98 11.98 0 00-6.675-9.53 22.172 22.172 0 00-19.436 0 11.98 11.98 0 00-6.675 9.53l-.075.727a37.486 37.486 0 00-.06 7.066l.063.735c.122 1.421.183 2.132.3 2.804a15.616 15.616 0 005.423 9.326c.526.436 1.115.843 2.292 1.657l.376.26c1.6 1.107 2.4 1.66 3.203 2.044a11.273 11.273 0 009.742 0c.802-.384 1.602-.937 3.203-2.044z" stroke="#ED9902" stroke-width="3.125"/><path d="M41.465 27.203l.063-.735a37.482 37.482 0 00-.06-7.066l-.075-.727a11.98 11.98 0 00-6.675-9.53 22.172 22.172 0 00-19.436 0 11.98 11.98 0 00-6.675 9.53l-.075.727a37.486 37.486 0 00-.06 7.066l.063.735c.122 1.421.183 2.132.3 2.804a15.616 15.616 0 005.423 9.326c.526.436 1.115.843 2.292 1.657l.376.26c1.6 1.107 2.4 1.66 3.203 2.044" stroke="#fff" stroke-width="3.125" stroke-linecap="round"/><path d="M19.27 25.13l4.168 4.167 7.291-7.812" stroke="#ED9902" stroke-width="3.125" stroke-linecap="round" stroke-linejoin="round"/></svg>