<svg xmlns="http://www.w3.org/2000/svg" width="48" height="48"><linearGradient id="NSg4mFx4swaSY8FRQXcGsa" x1="9.823" x2="36.377" y1="6.052" y2="39.669" gradientUnits="userSpaceOnUse"><stop offset=".002" stop-color="#f24f78"/><stop offset=".397" stop-color="#e2305d"/><stop offset=".763" stop-color="#d6224a"/><stop offset="1" stop-color="#d22243"/></linearGradient><circle cx="24" cy="24" r="20" fill="url(#NSg4mFx4swaSY8FRQXcGsa)"/><path d="M20.046 38C15.179 38 13 34.131 13 30.296c0-4.02 2.071-8.347 6.618-8.347.23 0 .461.014.691.04a45.355 45.355 0 01-.042-1.977c0-1.127.135-11.012 4.8-11.012 3.257 0 4.908 3.762 4.908 11.18 0 2.75-.74 7.168-2.389 10.971.241.265.447.419.592.502.443-.567 1.511-2.426 2.242-4.781a2.338 2.338 0 012.941-1.553 2.384 2.384 0 011.532 2.966c-1.158 3.736-3.228 8.19-6.511 8.19-1.061 0-2.188-.433-3.219-1.229C23.641 37.074 21.921 38 20.046 38zm-.426-11.316c-1.91 0-1.932 3.575-1.932 3.611 0 1.97.794 2.969 2.36 2.969.602 0 1.41-.718 2.186-1.934-.54-1.177-.974-2.537-1.292-4.048l-.015-.015c-.061-.056-.653-.583-1.307-.583zm5.536-9.649c-.121.91-.201 1.926-.201 2.978 0 1.049.038 2.049.113 2.995.145-.993.221-1.953.221-2.827 0-1.261-.053-2.298-.133-3.146z" opacity=".05"/><path d="M20.046 37.5c-4.522 0-6.546-3.618-6.546-7.204 0-3.779 1.915-7.847 6.118-7.847.409 0 .818.046 1.222.137a43.534 43.534 0 01-.073-2.574c0-.429.049-10.512 4.3-10.512 2.925 0 4.408 3.593 4.408 10.68 0 2.796-.766 7.26-2.473 11.055.504.635.992.95 1.302.997.434-.284 1.76-2.527 2.593-5.212a1.841 1.841 0 012.313-1.224 1.88 1.88 0 011.204 2.341c-.907 2.927-2.897 7.838-6.034 7.838-1.082 0-2.258-.519-3.293-1.438-1.5 1.967-3.193 2.963-5.041 2.963zm-.426-11.316c-2.404 0-2.432 3.943-2.432 4.111 0 1.295.372 3.469 2.86 3.469.843 0 1.816-.85 2.754-2.4-.595-1.234-1.066-2.69-1.402-4.333-.044-.039-.125-.122-.125-.122-.001-.001-.745-.725-1.655-.725zm5.574-11.886c-.381 1.332-.739 3.464-.739 5.714 0 2.239.169 4.249.504 6 .533-2.007.83-4.06.83-5.832 0-3.085-.31-4.882-.595-5.882z" opacity=".07"/><path fill="#fff" d="M33.061 26.273a1.347 1.347 0 00-1.686.895c-.824 2.658-2.316 5.419-2.993 5.57-.507 0-1.236-.43-1.958-1.44 1.674-3.594 2.551-8.106 2.551-11.118 0-8.413-2.124-10.18-3.908-10.18-3.757 0-3.8 9.912-3.8 10.012 0 1.166.042 2.248.121 3.256a5.149 5.149 0 00-1.77-.319c-3.86 0-5.618 3.809-5.618 7.347C14 33.63 15.871 37 20.046 37c1.972 0 3.634-1.291 4.975-3.221 1.188 1.235 2.432 1.696 3.36 1.696 2.923 0 4.858-5.233 5.556-7.486a1.375 1.375 0 00-.876-1.716zm-13.013 7.991c-3.031 0-3.36-2.775-3.36-3.969 0-.188.034-4.611 2.932-4.611 1.144 0 2.022.885 2.022.885.065.07.137.131.212.184.375 1.904.904 3.426 1.516 4.632-1.004 1.738-2.167 2.879-3.322 2.879zm4.853-6.338c-.559-1.93-.946-4.521-.946-7.914 0-3.126.666-6.068 1.219-7.073.424.644 1.115 2.65 1.115 7.241 0 2.436-.539 5.266-1.388 7.746z"/></svg>